<svg width="558" height="558" viewBox="0 0 558 558" fill="none" xmlns="http://www.w3.org/2000/svg">
<g clip-path="url(#clip0)">
<circle cx="279" cy="279" r="279" fill="black"/>
<path d="M240.238 330.5H126.488L104.788 383H46.6879L155.888 138H211.888L321.438 383H261.938L240.238 330.5ZM222.388 287.45L183.538 193.65L144.688 287.45H222.388Z" fill="white"/>
<path d="M392.007 387.2C375.44 387.2 360.157 384.167 346.157 378.1C332.39 371.8 321.073 362.933 312.207 351.5L343.707 313.7C357.007 331.667 372.173 340.65 389.207 340.65C412.307 340.65 423.857 327.117 423.857 300.05V183.5H337.757V138H480.207V296.9C480.207 327 472.74 349.633 457.807 364.8C442.873 379.733 420.94 387.2 392.007 387.2Z" fill="#FF6C6C"/>
</g>
<defs>
<clipPath id="clip0">
<rect width="558" height="558" fill="white"/>
</clipPath>
</defs>
</svg>
